<?xml version="1.0" encoding="UTF-8" standalone="no"?>
<!-- Created with Inkscape (http://www.inkscape.org/) -->

<svg
   xmlns:dc="http://purl.org/dc/elements/1.1/"
   xmlns:cc="http://creativecommons.org/ns#"
   xmlns:rdf="http://www.w3.org/1999/02/22-rdf-syntax-ns#"
   xmlns:svg="http://www.w3.org/2000/svg"
   xmlns="http://www.w3.org/2000/svg"
   xmlns:sodipodi="http://sodipodi.sourceforge.net/DTD/sodipodi-0.dtd"
   xmlns:inkscape="http://www.inkscape.org/namespaces/inkscape"
   id="svg2"
   sodipodi:docname="happy-sun-gm.svg"
   viewBox="0 0 331.78125 317.58529"
   sodipodi:version="0.32"
   version="1.0"
   inkscape:output_extension="org.inkscape.output.svg.inkscape"
   inkscape:version="0.48.5 r10040"
   width="100%"
   height="100%">
  <title
     id="title8287">Happy Sun</title>
  <defs
     id="defs4">
    <filter
       id="filter6771"
       inkscape:collect="always"
       color-interpolation-filters="sRGB">
      <feGaussianBlur
         id="feGaussianBlur6773"
         stdDeviation="9.8512913"
         inkscape:collect="always" />
    </filter>
  </defs>
  <sodipodi:namedview
     id="base"
     inkscape:zoom="0.80952"
     borderopacity="1.0"
     inkscape:current-layer="layer1"
     inkscape:cx="49.805848"
     inkscape:window-y="-4"
     inkscape:window-maximized="0"
     showgrid="false"
     inkscape:guide-bbox="true"
     showguides="true"
     bordercolor="#666666"
     inkscape:window-x="-4"
     guidetolerance="10"
     objecttolerance="10"
     inkscape:window-width="1024"
     inkscape:pageopacity="0.0"
     inkscape:pageshadow="2"
     pagecolor="#ffffff"
     gridtolerance="10000"
     inkscape:cy="94.959416"
     inkscape:document-units="px"
     inkscape:window-height="712"
     fit-margin-top="0"
     fit-margin-left="0"
     fit-margin-right="0"
     fit-margin-bottom="0" />
  <g
     id="layer1"
     inkscape:label="Layer 1"
     inkscape:groupmode="layer"
     transform="translate(-203.5625,-231.96866)">
    <g
       id="g3053">
      <path
         id="path2511"
         sodipodi:nodetypes="cccccccccccsccccccccccccccccccccccc"
         style="fill:#edd400;fill-rule:evenodd;stroke:#c4a000;stroke-width:3.125"
         d="m 436.05,534.59 c 0,0 -38.287,15.304 -60.938,13.188 l -3.1832,-68.46 c -8.4043,0 -17.75,-1.2531 -25.411,-3.5469 l -27.625,62.163 c 0,0 -30.37,1.9321 -51.962,-12.039 l 48.83,-67.512 c -4.8626,-4.4055 -9.1767,-9.3046 -12.949,-14.705 l -74.857,31.569 c -7.6207,-12.49 -16.659,-33.069 -22.375,-51.062 l 83.148,-16.068 c -0.3913,-3.6393 -0.6397,-7.6301 -0.6397,-11.401 0,-4.6756 0.11411,-9.2497 0.84761,-13.719 l -77.793,-32.188 c 4.4455,-18.205 14.857,-41.662 33.062,-57.75 l 65.816,46.969 c 6.7649,-7.4269 14.858,-13.614 23.875,-18.25 l -29.785,-73.5 c 18.853,-9.129 40.482,-14.776 57.938,-14.75 1.1637,0.002 2.3129,0.0409 3.4375,0.0938 l 5.9062,78.844 c 10.828,0.0876 21.166,2.2205 30.656,6.0313 l 24.062,-77.906 c 16.935,3.387 43.17,17.261 61.375,36.312 l -54.411,63.299 c 4.9307,5.4165 9.3379,11.487 12.719,18.039 l 71.567,-39.557 c 9.5259,13.76 15.952,50.1 16.375,68.094 l -78.8,9.7829 c 0,9.2418 -1.4491,18.272 -4.2079,26.594 l 67.696,25.56 c -3.1753,8.0442 -15.636,34.69 -34.688,51.625 l -52.585,-44.951 c -5.0072,5.1668 -10.69,9.6796 -16.89,13.458 l 21.787,65.743"
         inkscape:connector-curvature="0" />
      <g
         id="g8104"
         transform="translate(7.5756,-8.8434)">
        <path
           id="path3338"
           sodipodi:rx="99.348404"
           sodipodi:ry="99.348404"
           style="fill:#c4a000;fill-rule:evenodd"
           sodipodi:type="arc"
           d="m 13.943634,64.107018 c 0,54.868612 -44.479795,99.348402 -99.348404,99.348402 -54.86861,0 -99.3484,-44.47979 -99.3484,-99.348402 0,-54.8686089 44.47979,-99.348404 99.3484,-99.348404 54.868609,0 99.348404,44.4797951 99.348404,99.348404 z"
           transform="matrix(0.84816,0,0,0.84816,436.27,350.57)"
           sodipodi:cy="64.107018"
           sodipodi:cx="-85.40477" />
        <path
           id="path3340"
           style="fill:#edd400;fill-rule:evenodd"
           d="m 437.09,375.38 c -10.404,-29.024 -39.253,-50.123 -70.081,-51.414 -30.087,-1.8495 -60.299,15.11 -74.125,42.012 -14.18,25.935 -11.828,59.67 5.6436,83.433 17.974,25.649 52.099,38.387 82.421,30.882 28.985,-6.4362 52.911,-30.602 59.218,-59.653 3.4203,-14.987 2.3494,-30.909 -3.076,-45.26 z"
           inkscape:connector-curvature="0" />
        <path
           id="path3334"
           style="fill:#fce94f;fill-rule:evenodd"
           d="m 431.38,374.68 c -9.5075,-26.523 -35.87,-45.804 -64.042,-46.984 -27.494,-1.69 -55.103,13.808 -67.738,38.392 -12.959,23.7 -10.809,54.528 5.1572,76.244 16.425,23.439 47.61,35.08 75.319,28.221 26.487,-5.8816 48.352,-27.965 54.115,-54.513 3.1255,-13.696 2.1468,-28.245 -2.8111,-41.36 z"
           inkscape:connector-curvature="0" />
      </g>
      <path
         id="path3210"
         sodipodi:nodetypes="cccc"
         style="fill:#fce94f;fill-rule:evenodd"
         d="m 298.37,441.59 -74.577,19.322 5.353,9.5323 69.224,-28.855 z"
         inkscape:connector-curvature="0" />
      <path
         id="path3212"
         sodipodi:nodetypes="cccc"
         style="fill:#fce94f;fill-rule:evenodd"
         d="m 341.94,477.42 -41.388,56.282 14.65,0.76057 26.738,-57.042 z"
         inkscape:connector-curvature="0" />
      <path
         id="path3214"
         sodipodi:nodetypes="ccccc"
         style="fill:#fce94f;fill-rule:evenodd"
         d="m 411.69,472.74 10.438,53.59 -5.0403,10.544 13.64,-4.7227 -19.038,-59.411 z"
         inkscape:connector-curvature="0" />
      <path
         id="path3221"
         sodipodi:nodetypes="cccc"
         style="fill:#fce94f;fill-rule:evenodd"
         d="m 434.34,454.12 49.933,41.637 7.8046,-8.5488 -57.737,-33.089 z"
         inkscape:connector-curvature="0" />
      <path
         id="path3223"
         sodipodi:nodetypes="cccc"
         style="fill:#fce94f;fill-rule:evenodd"
         d="m 465.38,391.86 64.411,-8.8449 -1.0588,-11.527 -63.352,20.372 z"
         inkscape:connector-curvature="0" />
      <path
         id="path3225"
         sodipodi:nodetypes="cccc"
         style="fill:#fce94f;fill-rule:evenodd"
         d="m 433.24,334.99 48.348,-58.781 -3.7606,-3.9766 -44.587,62.758 z"
         inkscape:connector-curvature="0" />
      <path
         id="path3227"
         sodipodi:nodetypes="czccczc"
         style="fill:#fce94f;fill-rule:evenodd"
         d="m 245.78,298.83 c -7.7368,7.7368 -13.992,14.112 -19.493,23.639 -5.4192,9.3864 -10.447,26.035 -10.447,26.035 l 61.336,25.774 -54.192,-30.64 c 0,0 2.0699,-11.685 5.0801,-17.143 3.0858,-5.5946 7.4943,-15.661 17.714,-27.666 z"
         inkscape:connector-curvature="0" />
      <g
         id="g8109"
         transform="translate(7.5756,-8.8434)">
        <path
           id="path2525"
           sodipodi:nodetypes="cc"
           style="fill:none;stroke:#000000;stroke-width:1px"
           d="m 336.16,432.18 c 3.8103,-7.1974 16.088,-19.475 24.767,-22.227"
           inkscape:connector-curvature="0" />
        <path
           id="path2527"
           sodipodi:nodetypes="cc"
           style="fill:none;stroke:#000000;stroke-width:1px"
           d="m 333.41,427.31 c -22.016,-31.542 8.0442,-36.834 18.628,-23.497"
           inkscape:connector-curvature="0" />
        <path
           id="path2529"
           sodipodi:nodetypes="cc"
           style="fill:none;stroke:#000000;stroke-width:1px"
           d="m 370.24,415.08 c 3.1966,-0.9035 5.4062,-4.1853 5.8859,-6.4796"
           inkscape:connector-curvature="0" />
        <path
           id="path2531"
           sodipodi:nodetypes="cc"
           style="fill:#5c3566;fill-rule:evenodd;stroke:#000000;stroke-width:1px"
           d="m 341.01,424.81 c -12.134,-17.004 7.983,-16.365 11.974,-11.096"
           inkscape:connector-curvature="0" />
        <path
           id="path2533"
           sodipodi:nodetypes="cccc"
           style="fill:#ff4500;fill-rule:evenodd;stroke:#000000;stroke-width:1px"
           d="m 342.55,432.06 c 5.3404,-9.1212 13.733,-15.497 19.499,-18.236 -3.082,4.8512 -4.5185,14.87 -4.5185,14.87 0,0 -6.3622,-0.401 -14.98,3.3658 z"
           inkscape:connector-curvature="0" />
        <path
           id="path2535"
           sodipodi:nodetypes="ccc"
           style="fill:#75507b;fill-rule:evenodd;stroke:#000000;stroke-width:1px"
           d="m 347.89,446.33 c 26.55,4.3866 71.339,-12.005 61.412,-60.719 3.5612,48.07 -36.908,60.497 -61.412,60.719 z"
           inkscape:connector-curvature="0" />
        <path
           id="path2537"
           sodipodi:nodetypes="czzzz"
           style="fill:#000000;fill-rule:evenodd;stroke:#000000;stroke-width:1px"
           d="m 347.08,444.01 c 0.3251,0.5306 -1.385,0.8069 -1.9638,2.5428 -0.5705,1.7106 1.0361,3.6873 -0.0253,3.7321 -1.0613,0.0448 -2.0884,-2.6654 -1.4668,-4.301 0.6515,-1.7145 2.8947,-2.8898 3.4559,-1.9739 z"
           inkscape:connector-curvature="0" />
        <path
           id="path2539"
           sodipodi:nodetypes="czzzz"
           style="fill:#000000;fill-rule:evenodd;stroke:#000000;stroke-width:1px"
           d="m 411.69,382.77 c -0.1816,0.5952 -1.5223,-0.5018 -3.2055,0.2159 -1.6588,0.7071 -2.0733,3.2205 -2.8106,2.4557 -0.7372,-0.7649 0.6106,-3.3307 2.2471,-3.9499 1.7154,-0.6491 4.0826,0.2509 3.769,1.2783 z"
           inkscape:connector-curvature="0" />
        <path
           id="path2541"
           sodipodi:nodetypes="cc"
           style="fill:none;stroke:#000000;stroke-width:1px"
           d="m 336.16,432.18 c 3.8103,-7.1974 16.088,-19.475 24.767,-22.227"
           inkscape:connector-curvature="0" />
        <path
           id="path2543"
           sodipodi:nodetypes="cc"
           style="fill:#5c3566;fill-rule:evenodd;stroke:#000000;stroke-width:1px"
           d="m 374.22,394.55 c -12.693,-18.52 5.6679,-20.117 12.054,-11.895"
           inkscape:connector-curvature="0" />
        <path
           id="path2545"
           sodipodi:nodetypes="cc"
           style="fill:none;stroke:#000000;stroke-width:1px"
           d="m 363.68,390.48 c -23.921,-43.184 17.358,-29.636 23.921,-17.358"
           inkscape:connector-curvature="0" />
        <path
           id="path2547"
           sodipodi:nodetypes="cc"
           style="fill:none;stroke:#000000;stroke-width:1px"
           d="m 370.67,400.22 c 3.8103,-7.1974 16.088,-19.475 24.767,-22.227"
           inkscape:connector-curvature="0" />
        <path
           id="path2549"
           sodipodi:nodetypes="cccc"
           style="fill:#ff4500;fill-rule:evenodd;stroke:#000000;stroke-width:1px"
           d="m 376.06,400.99 c 5.3404,-9.1212 13.733,-15.497 19.499,-18.236 -3.082,4.8512 -5.8621,13.258 -5.8621,13.258 0,0 -5.0186,1.2113 -13.637,4.9781 z"
           inkscape:connector-curvature="0" />
        <path
           id="path2551"
           sodipodi:rx="4.6769719"
           sodipodi:ry="4.6769719"
           style="fill:#d3d7cf;fill-rule:evenodd"
           sodipodi:type="arc"
           d="m 320.94418,797.62311 c 0,2.58302 -2.09395,4.67697 -4.67697,4.67697 -2.58302,0 -4.67697,-2.09395 -4.67697,-4.67697 0,-2.58302 2.09395,-4.67697 4.67697,-4.67697 2.58302,0 4.67697,2.09395 4.67697,4.67697 z"
           transform="matrix(0.44444,0,0,0.44444,233.52,30.033)"
           sodipodi:cy="797.62311"
           sodipodi:cx="316.26721" />
        <path
           id="path2553"
           sodipodi:rx="4.6769719"
           sodipodi:ry="4.6769719"
           style="fill:#eeeeec;fill-rule:evenodd"
           sodipodi:type="arc"
           d="m 320.94418,797.62311 c 0,2.58302 -2.09395,4.67697 -4.67697,4.67697 -2.58302,0 -4.67697,-2.09395 -4.67697,-4.67697 0,-2.58302 2.09395,-4.67697 4.67697,-4.67697 2.58302,0 4.67697,2.09395 4.67697,4.67697 z"
           transform="matrix(0.14536,0,0,0.14536,327.45,268.34)"
           sodipodi:cy="797.62311"
           sodipodi:cx="316.26721" />
        <path
           id="path2555"
           sodipodi:rx="4.6769719"
           sodipodi:ry="4.6769719"
           style="fill:#d3d7cf;fill-rule:evenodd"
           sodipodi:type="arc"
           d="m 320.94418,797.62311 c 0,2.58302 -2.09395,4.67697 -4.67697,4.67697 -2.58302,0 -4.67697,-2.09395 -4.67697,-4.67697 0,-2.58302 2.09395,-4.67697 4.67697,-4.67697 2.58302,0 4.67697,2.09395 4.67697,4.67697 z"
           transform="matrix(0.44444,0,0,0.44444,200.47,62.093)"
           sodipodi:cy="797.62311"
           sodipodi:cx="316.26721" />
        <path
           id="path2557"
           sodipodi:rx="4.6769719"
           sodipodi:ry="4.6769719"
           style="fill:#eeeeec;fill-rule:evenodd"
           sodipodi:type="arc"
           d="m 320.94418,797.62311 c 0,2.58302 -2.09395,4.67697 -4.67697,4.67697 -2.58302,0 -4.67697,-2.09395 -4.67697,-4.67697 0,-2.58302 2.09395,-4.67697 4.67697,-4.67697 2.58302,0 4.67697,2.09395 4.67697,4.67697 z"
           transform="matrix(0.14536,0,0,0.14536,294.4,300.4)"
           sodipodi:cy="797.62311"
           sodipodi:cx="316.26721" />
        <path
           id="path8098"
           sodipodi:nodetypes="cccc"
           style="fill:#ffb397;fill-rule:evenodd"
           d="m 346.26,428.47 c 4.5563,-6.6379 11.645,-11.239 13.285,-12.017 -0.87702,1.377 -1.3822,3.9798 -1.3822,3.9798 0,0 -6.7035,3.4974 -11.903,8.037 z"
           inkscape:connector-curvature="0" />
        <path
           id="path8102"
           sodipodi:nodetypes="cccc"
           style="fill:#ffb397;fill-rule:evenodd"
           d="m 379.38,398.21 c 3.441,-5.5556 7.0198,-8.4388 12.16,-11.98 -6.862,6.8205 -8.1676,10.631 -8.1676,10.631 0,0 -1.7198,0.36594 -3.9919,1.3497 z"
           inkscape:connector-curvature="0" />
      </g>
    </g>
  </g>
  <metadata
     id="metadata43">
    <rdf:RDF>
      <cc:Work>
        <dc:format>image/svg+xml</dc:format>
        <dc:type
           rdf:resource="http://purl.org/dc/dcmitype/StillImage" />
        <cc:license
           rdf:resource="http://creativecommons.org/licenses/publicdomain/" />
        <dc:publisher>
          <cc:Agent
             rdf:about="http://openclipart.org/">
            <dc:title>Openclipart</dc:title>
          </cc:Agent>
        </dc:publisher>
        <dc:title>Happy Sun</dc:title>
        <dc:date>2010-05-08T20:12:00</dc:date>
        <dc:description>A happy Sun</dc:description>
        <dc:source>https://openclipart.org/detail/59389/happy-sun-by-gmcglinn</dc:source>
        <dc:creator>
          <cc:Agent>
            <dc:title>GMcGlinn</dc:title>
          </cc:Agent>
        </dc:creator>
        <dc:subject>
          <rdf:Bag>
            <rdf:li>Sun</rdf:li>
            <rdf:li>face</rdf:li>
            <rdf:li>happy</rdf:li>
            <rdf:li>smile</rdf:li>
            <rdf:li>weather</rdf:li>
          </rdf:Bag>
        </dc:subject>
      </cc:Work>
      <cc:License
         rdf:about="http://creativecommons.org/licenses/publicdomain/">
        <cc:permits
           rdf:resource="http://creativecommons.org/ns#Reproduction" />
        <cc:permits
           rdf:resource="http://creativecommons.org/ns#Distribution" />
        <cc:permits
           rdf:resource="http://creativecommons.org/ns#DerivativeWorks" />
      </cc:License>
    </rdf:RDF>
  </metadata>
</svg>
